<svg xmlns="http://www.w3.org/2000/svg" version="1.1" xmlns:xlink="http://www.w3.org/1999/xlink" xmlns:svgjs="http://svgjs.dev/svgjs" width="1200" height="560" preserveAspectRatio="none" viewBox="0 0 1200 560"><g mask="url(&quot;#SvgjsMask1003&quot;)" fill="none"><rect width="1200" height="560" x="0" y="0" fill="rgba(29, 29, 29, 1)"></rect><path d="M 0,294 C 22,272.4 66,150.8 110,186 C 154,221.2 176,479.6 220,470 C 264,460.4 286,166.6 330,138 C 374,109.4 396,309.8 440,327 C 484,344.2 506,181 550,224 C 594,267 616,535.2 660,542 C 704,548.8 726,258.2 770,258 C 814,257.8 836,537.4 880,541 C 924,544.6 946,282.6 990,276 C 1034,269.4 1058,518 1100,508 C 1142,498 1180,282.4 1200,226L1200 560L0 560z" fill="rgba(34, 34, 34, 1)"></path><path d="M 0,239 C 30,274.8 90,465.4 150,418 C 210,370.6 240,13.6 300,2 C 360,-9.6 390,330.4 450,360 C 510,389.6 540,156.2 600,150 C 660,143.8 690,308.8 750,329 C 810,349.2 840,215.2 900,251 C 960,286.8 990,549.4 1050,508 C 1110,466.6 1170,136.8 1200,44L1200 560L0 560z" fill="rgba(0, 0, 0, 1)"></path></g><defs><mask id="SvgjsMask1003"><rect width="1200" height="560" fill="#ffffff"></rect></mask></defs></svg>